<svg width="59" height="59" viewBox="0 0 59 59" fill="none" xmlns="http://www.w3.org/2000/svg">
<rect width="59" height="59" fill="black" fill-opacity="0"/>
<path d="M29.5002 37.3667C33.8448 37.3667 37.3668 33.8446 37.3668 29.5C37.3668 25.1554 33.8448 21.6333 29.5002 21.6333C25.1555 21.6333 21.6335 25.1554 21.6335 29.5C21.6335 33.8446 25.1555 37.3667 29.5002 37.3667Z" fill="#ED164F" fill-opacity="0.69"/>
<path d="M22.125 4.91667L17.6263 9.83334H9.83335C7.12919 9.83334 4.91669 12.0458 4.91669 14.75V44.25C4.91669 46.9542 7.12919 49.1667 9.83335 49.1667H49.1667C51.8709 49.1667 54.0834 46.9542 54.0834 44.25V14.75C54.0834 12.0458 51.8709 9.83334 49.1667 9.83334H41.3738L36.875 4.91667H22.125ZM29.5 41.7917C22.715 41.7917 17.2084 36.285 17.2084 29.5C17.2084 22.715 22.715 17.2083 29.5 17.2083C36.285 17.2083 41.7917 22.715 41.7917 29.5C41.7917 36.285 36.285 41.7917 29.5 41.7917Z" fill="#ED164F" fill-opacity="0.69"/>
</svg>
