<svg width="15" height="14" viewBox="0 0 15 14" fill="none" xmlns="http://www.w3.org/2000/svg">
<rect width="15" height="13.7625" fill="black" fill-opacity="0"/>
<path d="M6.74909 12.4028L6.74837 12.4021C4.80706 10.6417 3.2363 9.21629 2.14484 7.88188C1.05912 6.55449 0.5 5.37826 0.5 4.125C0.5 2.09114 2.09114 0.5 4.125 0.5C5.27861 0.5 6.39362 1.03947 7.11932 1.89167L7.5 2.3387L7.88068 1.89167C8.60638 1.03947 9.72139 0.5 10.875 0.5C12.9089 0.5 14.5 2.09114 14.5 4.125C14.5 5.37827 13.9409 6.55452 12.8551 7.88294C11.764 9.21781 10.1941 10.6444 8.25384 12.4076L8.25231 12.409L8.25124 12.41L7.50128 13.0875L6.74909 12.4028Z" stroke="#FAF9F9" stroke-opacity="0.64"/>
</svg>
