<svg width="31" height="35" viewBox="0 0 31 35" fill="none" xmlns="http://www.w3.org/2000/svg">
<path d="M21.3122 4.375C19.0647 4.375 16.9076 5.55625 15.4997 7.42292C14.0918 5.55625 11.9347 4.375 9.68717 4.375C5.70884 4.375 2.58301 7.90417 2.58301 12.3958C2.58301 17.9083 6.97467 22.4 13.6268 29.225L15.4997 31.1354L17.3726 29.2104C24.0247 22.4 28.4163 17.9083 28.4163 12.3958C28.4163 7.90417 25.2905 4.375 21.3122 4.375ZM15.6288 27.0521L15.4997 27.1979L15.3705 27.0521C9.22217 20.7667 5.16634 16.6104 5.16634 12.3958C5.16634 9.47917 7.10384 7.29167 9.68717 7.29167C11.6763 7.29167 13.6138 8.73542 14.2984 10.7333H16.7138C17.3855 8.73542 19.323 7.29167 21.3122 7.29167C23.8955 7.29167 25.833 9.47917 25.833 12.3958C25.833 16.6104 21.7772 20.7667 15.6288 27.0521Z" fill="#C4C4C4"/>
</svg>
