<svg width="43" height="120" viewBox="0 0 43 120" fill="none" xmlns="http://www.w3.org/2000/svg">
<rect width="59.6833" height="73.6791" fill="black" fill-opacity="0" transform="matrix(0.65065 -0.759378 0.0482371 0.998836 0 46.0532)"/>
<path d="M32.5635 63.7756L31.3231 63.9946L30.8926 63.6018C32.4696 61.3441 33.4457 58.6022 33.4998 55.7973C33.6205 49.5429 29.1495 45.2798 23.513 46.2749C17.8765 47.27 13.2098 53.1464 13.0891 59.4008C12.9684 65.6552 17.4394 69.9183 23.0759 68.9231C25.6037 68.4769 27.9472 67.0387 29.77 65.0154L30.1845 65.4284L30.158 66.8047L37.8405 74.1122L40.2299 71.1033L32.5635 63.7756V63.7756ZM23.1431 65.4388C19.2337 66.129 16.1455 63.1844 16.2292 58.8464C16.3129 54.5084 19.5363 50.4495 23.4457 49.7593C27.3552 49.069 30.4434 52.0137 30.3597 56.3517C30.276 60.6897 27.0526 64.7486 23.1431 65.4388Z" fill="#4F4F4F"/>
</svg>
