<svg width="35" height="31" viewBox="0 0 35 31" fill="none" xmlns="http://www.w3.org/2000/svg">
<path d="M22.7354 17.9671L24.7917 16.1458L17.5 9.6875L10.2083 16.1458L12.2646 17.9671L16.0417 14.6346V27.125H18.9583V14.6346L22.7354 17.9671ZM4.375 6.45833L4.375 24.5417C4.375 25.9754 5.6875 27.125 7.29167 27.125H13.125V24.5417H7.29167L7.29167 6.45833L27.7083 6.45833L27.7083 24.5417H21.875V27.125H27.7083C29.3125 27.125 30.625 25.9754 30.625 24.5417L30.625 6.45833C30.625 5.0375 29.3125 3.875 27.7083 3.875L7.29167 3.875C5.6875 3.875 4.375 5.0375 4.375 6.45833Z" fill="#C4C4C4"/>
</svg>
