<svg width="61" height="59" viewBox="0 0 61 59" fill="none" xmlns="http://www.w3.org/2000/svg">
<rect width="61" height="59" fill="black" fill-opacity="0"/>
<path d="M39.3958 27.0417C41.5014 27.0417 43.2083 25.3907 43.2083 23.3542C43.2083 21.3176 41.5014 19.6667 39.3958 19.6667C37.2902 19.6667 35.5833 21.3176 35.5833 23.3542C35.5833 25.3907 37.2902 27.0417 39.3958 27.0417Z" fill="#ED164F" fill-opacity="0.69"/>
<path d="M21.6042 27.0417C23.7098 27.0417 25.4167 25.3907 25.4167 23.3542C25.4167 21.3176 23.7098 19.6667 21.6042 19.6667C19.4986 19.6667 17.7917 21.3176 17.7917 23.3542C17.7917 25.3907 19.4986 27.0417 21.6042 27.0417Z" fill="#ED164F" fill-opacity="0.69"/>
<path d="M39.3958 27.0417C41.5014 27.0417 43.2083 25.3907 43.2083 23.3542C43.2083 21.3176 41.5014 19.6667 39.3958 19.6667C37.2902 19.6667 35.5833 21.3176 35.5833 23.3542C35.5833 25.3907 37.2902 27.0417 39.3958 27.0417Z" fill="#ED164F" fill-opacity="0.69"/>
<path d="M21.6042 27.0417C23.7098 27.0417 25.4167 25.3907 25.4167 23.3542C25.4167 21.3176 23.7098 19.6667 21.6042 19.6667C19.4986 19.6667 17.7917 21.3176 17.7917 23.3542C17.7917 25.3907 19.4986 27.0417 21.6042 27.0417Z" fill="#ED164F" fill-opacity="0.69"/>
<path d="M30.4745 5.91666C16.4445 5.91666 5.08325 16.93 5.08325 30.5C5.08325 44.07 16.4445 55.0833 30.4745 55.0833C44.5299 55.0833 55.9166 44.07 55.9166 30.5C55.9166 16.93 44.5299 5.91666 30.4745 5.91666ZM30.4999 50.1667C19.2658 50.1667 10.1666 41.3658 10.1666 30.5C10.1666 19.6342 19.2658 10.8333 30.4999 10.8333C41.7341 10.8333 50.8333 19.6342 50.8333 30.5C50.8333 41.3658 41.7341 50.1667 30.4999 50.1667ZM30.4999 44.0208C36.422 44.0208 41.4799 40.4562 43.5133 35.4167H39.2687C37.5149 38.3421 34.2616 40.3333 30.4999 40.3333C26.7383 40.3333 23.5103 38.3421 21.7312 35.4167H17.4866C19.5199 40.4562 24.5778 44.0208 30.4999 44.0208Z" fill="#ED164F" fill-opacity="0.69"/>
</svg>
