<svg width="20" height="20" viewBox="0 0 20 20" fill="none" xmlns="http://www.w3.org/2000/svg">
<rect width="20" height="20" fill="black" fill-opacity="0"/>
<path d="M1.66666 16.6667H3.33332C3.79166 16.6667 4.16666 16.2917 4.16666 15.8333V8.33333C4.16666 7.875 3.79166 7.5 3.33332 7.5H1.66666V16.6667ZM18.1917 10.7333C18.2833 10.525 18.3333 10.3 18.3333 10.0667V9.16666C18.3333 8.25 17.5833 7.5 16.6667 7.5H12.0833L12.85 3.625C12.8917 3.44166 12.8667 3.24166 12.7833 3.075C12.5917 2.7 12.35 2.35833 12.05 2.05833L11.6667 1.66666L6.32499 7.00833C6.00832 7.325 5.83332 7.75 5.83332 8.19166V14.725C5.83332 15.7917 6.70832 16.6667 7.78332 16.6667H14.5417C15.125 16.6667 15.675 16.3583 15.975 15.8583L18.1917 10.7333Z" fill="#262626"/>
</svg>
