<svg width="28" height="23" viewBox="0 0 28 23" fill="none" xmlns="http://www.w3.org/2000/svg">
<rect width="23" height="28" fill="black" fill-opacity="0" transform="translate(0 23) rotate(-90)"/>
<path d="M18.1883 13.3304L19.8333 11.9792L14 7.1875L8.16667 11.9792L9.81167 13.3304L12.8333 10.8579L12.8333 20.125H15.1667L15.1667 10.8579L18.1883 13.3304ZM3.5 4.79167L3.5 18.2083C3.5 19.2721 4.55 20.125 5.83333 20.125H10.5V18.2083H5.83333L5.83333 4.79167L22.1667 4.79167L22.1667 18.2083H17.5V20.125H22.1667C23.45 20.125 24.5 19.2721 24.5 18.2083L24.5 4.79167C24.5 3.7375 23.45 2.875 22.1667 2.875L5.83333 2.875C4.55 2.875 3.5 3.7375 3.5 4.79167Z" fill="#F2F2F2"/>
</svg>
